<svg xmlns="http://www.w3.org/2000/svg" width="60.234" height="59.688" viewBox="0 0 60.234 59.688"><defs><style>.a{fill:#fff;}</style></defs><g transform="translate(-1407 -347.312)"><path class="a" d="M4.511,5384.51H45.922a.706.706,0,0,1,0,1.412H4.511a.706.706,0,0,1,0-1.412Z" transform="translate(1411.901 -4982.687)"/><path class="a" d="M61.857,5413.184H67.5a.706.706,0,0,1,0,1.412H61.857a.706.706,0,0,1,0-1.412Z" transform="translate(1362.084 -5007.596)"/><path class="a" d="M133.539,5413.184H150.48a.706.706,0,0,1,0,1.412H133.539a.706.706,0,0,1,0-1.412Z" transform="translate(1299.813 -5007.596)"/><path class="a" d="M362.3,5311.046l.006-.012.006.012a4.041,4.041,0,0,0,1.863,1.863l.013.007-.013.006a4.045,4.045,0,0,0-1.863,1.863l-.006.013-.006-.013a4.047,4.047,0,0,0-1.863-1.863l-.013-.006.013-.007a4.042,4.042,0,0,0,1.863-1.863Z" transform="translate(1102.104 -4918.858)"/><path class="a" d="M360.534,4974.339l-.008.017-.009-.017a5.394,5.394,0,0,0-2.485-2.486l-.017-.008.017-.009a5.394,5.394,0,0,0,2.485-2.486l.009-.017.008.017a5.4,5.4,0,0,0,2.486,2.486l.017.009-.017.008a5.4,5.4,0,0,0-2.486,2.486Z" transform="translate(1104.197 -4622.022)"/><path class="a" d="M31.628,4983.168l0,.006,0-.006a2.024,2.024,0,0,0-.931-.932l-.007,0,.007,0a2.02,2.02,0,0,0,.931-.932l0-.006,0,.006a2.02,2.02,0,0,0,.932.932l.006,0-.006,0a2.025,2.025,0,0,0-.932.932Z" transform="translate(1388.551 -4632.411)"/><path class="a" d="M-62.484,5062.957a6.067,6.067,0,0,0,2.795-2.795l.009-.019.009.019a6.066,6.066,0,0,0,2.795,2.795l.019.009-.019.01a6.065,6.065,0,0,0-2.795,2.794l-.009.02-.009-.02a6.066,6.066,0,0,0-2.795-2.794l-.019-.01.019-.009Z" transform="translate(1469.503 -4700.908)"/><path class="a" d="M-60.711,5357.792a.731.731,0,0,0,.741.643H-1.655a.707.707,0,0,0,.7-.769.731.731,0,0,0-.741-.644H-60.007A.707.707,0,0,0-60.711,5357.792Z" transform="translate(1467.948 -4958.808)"/><path class="a" d="M107.059,5050.492H99.6a.7.7,0,0,1-.7-.7v-17.944H95.837a.7.7,0,0,1-.7-.7v-7.464a.7.7,0,0,1,.7-.7h3.017v-2.653a9.319,9.319,0,0,1,1.643-5.454c.01-.015.02-.028.031-.042a8.08,8.08,0,0,1,6.9-3.015h5.737a.7.7,0,0,1,.7.7v6.394a.7.7,0,0,1-.7.7h-4.223a.845.845,0,0,0-.157.006.87.87,0,0,0-.75.977.677.677,0,0,1,.006.092v2.293h5.227a.7.7,0,0,1,.7.771l-.446,4.529-.243,2.923a.7.7,0,0,1-.7.644h-4.821v17.944A.7.7,0,0,1,107.059,5050.492Zm-6.761-1.4h6.058v-17.944a.7.7,0,0,1,.7-.7h4.877l.19-2.29.371-3.768h-5.155a.7.7,0,0,1-.7-.7v-2.953a2.275,2.275,0,0,1,1.962-2.5,2.235,2.235,0,0,1,.4-.018h3.467v-4.989h-5.061l-.053,0a6.681,6.681,0,0,0-5.711,2.47,7.932,7.932,0,0,0-1.382,4.626v3.368a.7.7,0,0,1-.7.7H96.54v6.06H99.6a.7.7,0,0,1,.7.7Z" transform="translate(1332.562 -4658.904)"/></g></svg>