<svg xmlns="http://www.w3.org/2000/svg" id="Component_28_1" width="20.769" height="20.769" viewBox="0 0 20.769 20.769">
    <defs>
        <style>
            .cls-1{fill:#fff}
        </style>
    </defs>
    <g id="Group_139">
        <g id="Group_138">
            <path id="Path_731" d="M14.279 0H6.49A6.491 6.491 0 0 0 0 6.49v7.788a6.491 6.491 0 0 0 6.49 6.49h7.788a6.491 6.491 0 0 0 6.49-6.49V6.49A6.491 6.491 0 0 0 14.279 0zm4.543 14.279a4.548 4.548 0 0 1-4.543 4.543H6.49a4.548 4.548 0 0 1-4.543-4.543V6.49A4.548 4.548 0 0 1 6.49 1.947h7.788a4.548 4.548 0 0 1 4.544 4.543z" class="cls-1"/>
        </g>
    </g>
    <g id="Group_141" transform="translate(5.191 5.192)">
        <g id="Group_140">
            <path id="Path_732" d="M133.192 128a5.192 5.192 0 1 0 5.192 5.192 5.192 5.192 0 0 0-5.192-5.192zm0 8.437a3.245 3.245 0 1 1 3.245-3.245 3.25 3.25 0 0 1-3.245 3.245z" class="cls-1" transform="translate(-128 -128)"/>
        </g>
    </g>
    <g id="Group_143" transform="translate(15.273 4.111)">
        <g id="Group_142">
            <circle id="Ellipse_308" cx=".692" cy=".692" r=".692" class="cls-1"/>
        </g>
    </g>
</svg>
