<svg xmlns="http://www.w3.org/2000/svg" width="60.234" height="60" viewBox="0 0 60.234 60"><defs><style>.a{fill:#fff;}</style></defs><g transform="translate(-1287 -347)"><g transform="translate(1287 347)"><g transform="translate(0 0)"><path class="a" d="M-649.985,5384.511H-691.4a.706.706,0,0,0-.706.706.706.706,0,0,0,.706.706h41.411a.706.706,0,0,0,.706-.706.706.706,0,0,0-.706-.706Z" transform="translate(700.808 -5329.688)"/><path class="a" d="M-470.7,5413.184h-5.647a.706.706,0,0,0-.706.706.706.706,0,0,0,.706.706h5.647a.706.706,0,0,0,.706-.706.706.706,0,0,0-.706-.706Z" transform="translate(513.995 -5354.596)"/><path class="a" d="M-617.11,5413.184h-16.941a.706.706,0,0,0-.706.706.706.706,0,0,0,.706.706h16.941a.706.706,0,0,0,.706-.706.706.706,0,0,0-.706-.706Z" transform="translate(650.992 -5354.596)"/><path class="a" d="M-749.355,5311.045l-.007-.014-.006.014a4.046,4.046,0,0,1-1.863,1.863l-.013.006.013.006a4.049,4.049,0,0,1,1.863,1.863l.006.013.007-.013a4.047,4.047,0,0,1,1.863-1.863l.013-.006-.013-.006a4.044,4.044,0,0,1-1.863-1.863Z" transform="translate(752.185 -5265.856)"/><path class="a" d="M-755.6,4972.583l.009.02.01-.02a6.063,6.063,0,0,1,2.795-2.794l.019-.01-.019-.01a6.065,6.065,0,0,1-2.795-2.794l-.01-.019-.009.019a6.067,6.067,0,0,1-2.795,2.794l-.019.01.019.01a6.064,6.064,0,0,1,2.795,2.794Z" transform="translate(758.412 -4966.956)"/><path class="a" d="M-346.963,5321.443l-.013.006.013.006a4.045,4.045,0,0,1,1.863,1.863l.006.013.006-.013a4.043,4.043,0,0,1,1.863-1.863l.013-.006-.013-.006a4.043,4.043,0,0,1-1.863-1.863l-.006-.013-.006.013a4.045,4.045,0,0,1-1.863,1.863Z" transform="translate(400.996 -5273.27)"/><path class="a" d="M-406.23,4983.169l0,.007,0-.007a2.019,2.019,0,0,1,.932-.932l.006,0-.006,0a2.017,2.017,0,0,1-.932-.932l0-.006,0,.006a2.018,2.018,0,0,1-.932.932l-.006,0,.006,0a2.02,2.02,0,0,1,.932.932Z" transform="translate(453.285 -4979.411)"/><path class="a" d="M-324.166,5069.387a3.981,3.981,0,0,1-1.834-1.833l-.006-.012-.006.012a3.98,3.98,0,0,1-1.833,1.833l-.013.006.013.006a3.982,3.982,0,0,1,1.833,1.833l.006.013.006-.013a3.983,3.983,0,0,1,1.834-1.833l.012-.006-.012-.006Z" transform="translate(384.388 -5054.335)"/></g><g transform="translate(12.93 10.082)"><path class="a" d="M-626.258,5078.115h-6.595a.7.7,0,0,1-.7-.7v-10.7c0-.013,0-.025,0-.037a9.19,9.19,0,0,0-.528-3.6,2.479,2.479,0,0,0-2.463-1.516.675.675,0,0,1-.175,0,2.8,2.8,0,0,0-2.669,1.361,7.8,7.8,0,0,0-.65,3.541c0,.012,0,.025,0,.037v10.9a.7.7,0,0,1-.7.7h-6.412a.7.7,0,0,1-.7-.7v-21.983a.7.7,0,0,1,.7-.7h6.128a.7.7,0,0,1,.7.7v1.219a7.568,7.568,0,0,1,5.89-1.921c5.391.011,8.072,2.287,8.689,7.375a26.591,26.591,0,0,1,.188,3.243v12.071A.7.7,0,0,1-626.258,5078.115Zm-5.893-1.4h5.19v-11.372a25.209,25.209,0,0,0-.178-3.073c-.528-4.359-2.653-6.138-7.332-6.138a.676.676,0,0,1-.077,0,6.167,6.167,0,0,0-5.793,2.669.7.7,0,0,1-.581.308h-.1a.7.7,0,0,1-.7-.7v-2.27h-4.723v20.579h5.008v-10.181a9.2,9.2,0,0,1,.786-4.2.616.616,0,0,1,.032-.063,4.2,4.2,0,0,1,3.962-2.1,3.884,3.884,0,0,1,3.885,2.393c0,.01.008.021.012.031a10.6,10.6,0,0,1,.616,4.142Zm-19.393,1.4h-7.683a.7.7,0,0,1-.7-.7v-21.985a.7.7,0,0,1,.7-.7h7.683a.7.7,0,0,1,.7.7v21.985A.7.7,0,0,1-651.544,5078.112Zm-6.98-1.4h6.278v-20.58h-6.278Zm3.144-23.875a4.571,4.571,0,0,1-4.548-4.543,4.57,4.57,0,0,1,4.543-4.548l.063,0a4.571,4.571,0,0,1,4.483,4.541A4.57,4.57,0,0,1-655.38,5052.833Zm-.047-7.687a3.163,3.163,0,0,0-3.1,3.143,3.16,3.16,0,0,0,3.143,3.139,3.16,3.16,0,0,0,3.136-3.143,3.16,3.16,0,0,0-3.14-3.137Z" transform="translate(659.929 -5043.741)"/></g><path class="a" d="M-696.863,5357.792a.731.731,0,0,1-.741.643h-58.315a.707.707,0,0,1-.7-.769.731.731,0,0,1,.74-.644h58.315A.707.707,0,0,1-696.863,5357.792Z" transform="translate(756.859 -5305.809)"/></g></g></svg>