<svg xmlns="http://www.w3.org/2000/svg" width="60.234" height="59.688" viewBox="0 0 60.234 59.688"><defs><style>.a{fill:#fff;}</style></defs><g transform="translate(-1167 -347.312)"><g transform="translate(1167 347.312)"><g transform="translate(0 0)"><path class="a" d="M-1397.385,5384.51h41.411a.706.706,0,0,1,.706.706.706.706,0,0,1-.706.706h-41.411a.706.706,0,0,1-.706-.706.706.706,0,0,1,.706-.706Z" transform="translate(1406.797 -5329.999)"/><path class="a" d="M-1340.039,5413.184h5.647a.706.706,0,0,1,.706.706.706.706,0,0,1-.706.706h-5.647a.706.706,0,0,1-.706-.706.706.706,0,0,1,.706-.706Z" transform="translate(1356.98 -5354.908)"/><path class="a" d="M-1268.357,5413.184h16.941a.706.706,0,0,1,.706.706.706.706,0,0,1-.706.706h-16.941a.706.706,0,0,1-.706-.706.706.706,0,0,1,.706-.706Z" transform="translate(1294.71 -5354.908)"/><path class="a" d="M-1039.6,5311.046l.007-.012.006.012a4.041,4.041,0,0,0,1.863,1.863l.013.007-.013.006a4.045,4.045,0,0,0-1.863,1.863l-.006.013-.007-.013a4.046,4.046,0,0,0-1.863-1.863l-.013-.006.013-.007a4.041,4.041,0,0,0,1.863-1.863Z" transform="translate(1097 -5266.17)"/><path class="a" d="M-1041.362,4974.339l-.008.017-.009-.017a5.393,5.393,0,0,0-2.485-2.486l-.017-.008.017-.009a5.393,5.393,0,0,0,2.485-2.486l.009-.017.008.017a5.4,5.4,0,0,0,2.485,2.486l.017.009-.017.008a5.4,5.4,0,0,0-2.485,2.486Z" transform="translate(1099.093 -4969.334)"/><path class="a" d="M-1370.268,4983.168l0,.006,0-.006a2.024,2.024,0,0,0-.931-.932l-.007,0,.007,0a2.019,2.019,0,0,0,.931-.932l0-.006,0,.006a2.02,2.02,0,0,0,.932.932l.006,0-.006,0a2.025,2.025,0,0,0-.932.932Z" transform="translate(1383.447 -4979.723)"/><path class="a" d="M-1464.38,5062.957a6.067,6.067,0,0,0,2.795-2.795l.009-.019.01.019a6.065,6.065,0,0,0,2.795,2.795l.019.009-.019.01a6.064,6.064,0,0,0-2.795,2.794l-.01.02-.009-.02a6.066,6.066,0,0,0-2.795-2.794l-.019-.01.019-.009Z" transform="translate(1464.399 -5048.22)"/><path class="a" d="M-1462.607,5357.792a.731.731,0,0,0,.74.643h58.315a.707.707,0,0,0,.7-.769.731.731,0,0,0-.74-.644H-1461.9A.707.707,0,0,0-1462.607,5357.792Z" transform="translate(1462.844 -5306.12)"/></g><g transform="translate(10.769 11.338)"><path class="a" d="M-1369.565,5086.926c-.131,0-.262,0-.393,0a22.783,22.783,0,0,1-12.089-3.482.7.7,0,0,1-.291-.823.7.7,0,0,1,.737-.47,17.456,17.456,0,0,0,1.767.093h.054a14.823,14.823,0,0,0,7.53-2.069,8.468,8.468,0,0,1-5.907-5.475.7.7,0,0,1,.143-.694.7.7,0,0,1,.674-.217c.071.016.141.03.212.043a8.348,8.348,0,0,1-3.17-3.867,7.752,7.752,0,0,1-.577-2.975v-.1a.7.7,0,0,1,.347-.605.7.7,0,0,1,.7-.008,6.615,6.615,0,0,0,.791.375,8.189,8.189,0,0,1-1.782-5.1,8.294,8.294,0,0,1,1.149-4.139.7.7,0,0,1,.549-.343.7.7,0,0,1,.6.252,21.142,21.142,0,0,0,14.381,7.553,8.643,8.643,0,0,1-.071-.946q0-.01,0-.021a8.311,8.311,0,0,1,8.3-8.216h.1a8.4,8.4,0,0,1,5.78,2.323,14.855,14.855,0,0,0,4.286-1.682.7.7,0,0,1,.8.059.7.7,0,0,1,.227.765,8.26,8.26,0,0,1-1.485,2.7,15.808,15.808,0,0,0,1.553-.57.7.7,0,0,1,.82.2.7.7,0,0,1,.037.843,16.571,16.571,0,0,1-3.68,3.861v.614a21.473,21.473,0,0,1-.522,4.7,22.533,22.533,0,0,1-7.084,12.027A22.116,22.116,0,0,1-1369.565,5086.926Zm-9.2-3.313a21.4,21.4,0,0,0,8.818,1.9,20.722,20.722,0,0,0,13.929-5.038,21.123,21.123,0,0,0,6.638-11.277,20.059,20.059,0,0,0,.489-4.4v-.968a.7.7,0,0,1,.29-.569,15.191,15.191,0,0,0,2.142-1.879,17.026,17.026,0,0,1-2.229.432.7.7,0,0,1-.753-.472.7.7,0,0,1,.311-.832,6.849,6.849,0,0,0,2.182-2.018,16.2,16.2,0,0,1-3.187.971.7.7,0,0,1-.644-.205,6.99,6.99,0,0,0-5.051-2.168h-.087a6.906,6.906,0,0,0-6.9,6.815,7.2,7.2,0,0,0,.2,1.558.7.7,0,0,1-.14.613.713.713,0,0,1-.575.255,22.551,22.551,0,0,1-15.584-7.313,6.878,6.878,0,0,0-.509,2.532,6.783,6.783,0,0,0,3.079,5.674.7.7,0,0,1,.286.795.7.7,0,0,1-.671.5h-.013a8.1,8.1,0,0,1-2.656-.5,6.362,6.362,0,0,0,.4,1.414,6.943,6.943,0,0,0,5.109,4.225.7.7,0,0,1,.566.661.7.7,0,0,1-.51.7,8.2,8.2,0,0,1-2.22.311c-.1,0-.2,0-.305-.008a7.052,7.052,0,0,0,6.025,3.7.7.7,0,0,1,.651.484.7.7,0,0,1-.238.775A16.246,16.246,0,0,1-1378.763,5083.613Z" transform="translate(1382.377 -5055.693)"/></g></g></g></svg>